<svg xmlns="http://www.w3.org/2000/svg" viewBox="0 0 220 220" fill="none" stroke="currentColor" stroke-width="1.5" stroke-linecap="round" stroke-linejoin="round">
  
  <g transform="translate(110 110)">
    <circle r="100" stroke-width="1.4" opacity="0.85"></circle>
    <circle r="95" stroke-width="0.9" opacity="0.50"></circle>
    <circle r="90" stroke-width="0.6" opacity="0.25"></circle>

    <g fill="currentColor" stroke="none">
      <g transform="rotate(-30)"><path d="M 0 -100 L -4 -94 L 0 -88 L 4 -94 Z"></path></g>
      <g transform="rotate(90)"> <path d="M 0 -100 L -4 -94 L 0 -88 L 4 -94 Z"></path></g>
      <g transform="rotate(210)"><path d="M 0 -100 L -4 -94 L 0 -88 L 4 -94 Z"></path></g>
    </g>

    <g transform="rotate(-90)">
      <path d="M 0 -8 C 18 -10, 36 -22, 38 -44 C 40 -64, 22 -76, 6 -68 C -10 -60, -10 -42, 0 -38" stroke-width="2.0"></path>
      <path d="M 0 -16 C 14 -18, 28 -26, 30 -42 C 32 -56, 18 -64, 8 -58 C -2 -52, -2 -42, 4 -42" stroke-width="1.1" opacity="0.75"></path>
      <circle cx="0" cy="-38" r="2" fill="currentColor" stroke="none"></circle>
      <circle cx="4" cy="-42" r="1.4" fill="currentColor" stroke="none" opacity="0.85"></circle>
      <circle cx="22" cy="-50" r="1.2" fill="currentColor" stroke="none" opacity="0.7"></circle>
    </g>
    <g transform="rotate(30)">
      <path d="M 0 -8 C 18 -10, 36 -22, 38 -44 C 40 -64, 22 -76, 6 -68 C -10 -60, -10 -42, 0 -38" stroke-width="2.0"></path>
      <path d="M 0 -16 C 14 -18, 28 -26, 30 -42 C 32 -56, 18 -64, 8 -58 C -2 -52, -2 -42, 4 -42" stroke-width="1.1" opacity="0.75"></path>
      <circle cx="0" cy="-38" r="2" fill="currentColor" stroke="none"></circle>
      <circle cx="4" cy="-42" r="1.4" fill="currentColor" stroke="none" opacity="0.85"></circle>
      <circle cx="22" cy="-50" r="1.2" fill="currentColor" stroke="none" opacity="0.7"></circle>
    </g>
    <g transform="rotate(150)">
      <path d="M 0 -8 C 18 -10, 36 -22, 38 -44 C 40 -64, 22 -76, 6 -68 C -10 -60, -10 -42, 0 -38" stroke-width="2.0"></path>
      <path d="M 0 -16 C 14 -18, 28 -26, 30 -42 C 32 -56, 18 -64, 8 -58 C -2 -52, -2 -42, 4 -42" stroke-width="1.1" opacity="0.75"></path>
      <circle cx="0" cy="-38" r="2" fill="currentColor" stroke="none"></circle>
      <circle cx="4" cy="-42" r="1.4" fill="currentColor" stroke="none" opacity="0.85"></circle>
      <circle cx="22" cy="-50" r="1.2" fill="currentColor" stroke="none" opacity="0.7"></circle>
    </g>

    <circle r="6" stroke-width="1.3"></circle>
    <circle r="2.4" fill="currentColor" stroke="none"></circle>
    <circle r="12" stroke-width="0.5" opacity="0.45"></circle>
  </g>
</svg>