<svg xmlns="http://www.w3.org/2000/svg" viewBox="0 0 80 32" fill="none" stroke="currentColor" stroke-width="1.4" stroke-linecap="round" stroke-linejoin="round">
  

  
  <line x1="0" y1="16" x2="18" y2="16" opacity="0.9"></line>
  <line x1="4" y1="13" x2="18" y2="13" opacity="0.45"></line>
  <line x1="4" y1="19" x2="18" y2="19" opacity="0.25"></line>

  
  <line x1="62" y1="16" x2="80" y2="16" opacity="0.9"></line>
  <line x1="62" y1="13" x2="76" y2="13" opacity="0.45"></line>
  <line x1="62" y1="19" x2="76" y2="19" opacity="0.25"></line>

  
  <g transform="translate(30 16)">
    <path d="M 0 0 C -4 -1, -7 -4, -8 -7"></path>
    <path d="M 0 0 C -4 1,  -7 4,  -8 7"></path>
    <circle cx="-8" cy="-7" r="1.2" fill="currentColor" stroke="none"></circle>
    <circle cx="-8" cy="7" r="1.2" fill="currentColor" stroke="none"></circle>
  </g>

  
  <g transform="translate(50 16)">
    <path d="M 0 0 C 4 -1, 7 -4, 8 -7"></path>
    <path d="M 0 0 C 4 1,  7 4,  8 7"></path>
    <circle cx="8" cy="-7" r="1.2" fill="currentColor" stroke="none"></circle>
    <circle cx="8" cy="7" r="1.2" fill="currentColor" stroke="none"></circle>
  </g>

  
  <g transform="translate(40 16)">
    
    <path d="M 0 -14 L -3 -10 L 0 -8 L 3 -10 Z" fill="currentColor" stroke="none"></path>
    
    <path d="M 0 -8 L 7 0 L 0 8 L -7 0 Z" stroke-width="1.4"></path>
    
    <circle r="1.8" fill="currentColor" stroke="none"></circle>
    
    <circle r="4.5" stroke-width="0.4" opacity="0.55"></circle>
  </g>
</svg>