<svg xmlns="http://www.w3.org/2000/svg" viewBox="0 0 480 56" fill="none" stroke="currentColor" stroke-width="1.4" stroke-linecap="round" stroke-linejoin="round">
  

  
  <line x1="0" y1="28" x2="140" y2="28" opacity="0.9"></line>
  <line x1="40" y1="32" x2="140" y2="32" opacity="0.45"></line>
  <line x1="0" y1="24" x2="140" y2="24" opacity="0.25"></line>

  <line x1="340" y1="28" x2="480" y2="28" opacity="0.9"></line>
  <line x1="340" y1="32" x2="440" y2="32" opacity="0.45"></line>
  <line x1="340" y1="24" x2="480" y2="24" opacity="0.25"></line>

  
  <g transform="translate(160 28)">
    <path d="M 0 0 C -16 -2, -22 -10, -26 -16"></path>
    <path d="M -8 -1 C -16 4, -22 10, -26 16"></path>
    <circle cx="-26" cy="-16" r="1.6" fill="currentColor" stroke="none"></circle>
    <circle cx="-26" cy="16" r="1.6" fill="currentColor" stroke="none"></circle>
  </g>

  
  <g transform="translate(320 28) scale(-1 1)">
    <path d="M 0 0 C -16 -2, -22 -10, -26 -16"></path>
    <path d="M -8 -1 C -16 4, -22 10, -26 16"></path>
    <circle cx="-26" cy="-16" r="1.6" fill="currentColor" stroke="none"></circle>
    <circle cx="-26" cy="16" r="1.6" fill="currentColor" stroke="none"></circle>
  </g>

  
  <g transform="translate(240 28)">
    
    <path d="M 0 -22 L -3 -15 L 0 -12 L 3 -15 Z" fill="currentColor" stroke="none"></path>
    
    <path d="M 0 -12 L 14 0 L 0 12 L -14 0 Z" stroke-width="1.5"></path>
    
    <circle r="3.5" fill="currentColor" stroke="none"></circle>
    
    <circle r="9" stroke-width="0.6" opacity="0.55"></circle>
    
    <path d="M 0 12 L 0 18" stroke-width="1.3"></path>
    <circle cy="20" r="1.4" fill="currentColor" stroke="none"></circle>
  </g>
</svg>