<svg xmlns="http://www.w3.org/2000/svg" viewBox="0 0 80 80" fill="none" stroke="currentColor" stroke-width="1.4" stroke-linecap="round" stroke-linejoin="round">
  
  <g transform="translate(40 40)">

    
    <path d="M 0 -34 L -4 -27 L 0 -24 L 4 -27 Z" fill="currentColor" stroke="none"></path>

    
    <line x1="0" y1="-24" x2="0" y2="-13" stroke-width="1.3"></line>

    
    <line x1="-30" y1="0" x2="-18" y2="0" opacity="0.9"></line>
    <line x1="-28" y1="3" x2="-18" y2="3" opacity="0.45"></line>
    <line x1="-26" y1="-3" x2="-18" y2="-3" opacity="0.25"></line>

    <line x1="30" y1="0" x2="18" y2="0" opacity="0.9"></line>
    <line x1="28" y1="3" x2="18" y2="3" opacity="0.45"></line>
    <line x1="26" y1="-3" x2="18" y2="-3" opacity="0.25"></line>

    
    <path d="M -14 0 C -20 -2, -24 -8, -26 -12"></path>
    <path d="M -14 0 C -20 2,  -24 8,  -26 12"></path>
    <circle cx="-26" cy="-12" r="1.4" fill="currentColor" stroke="none"></circle>
    <circle cx="-26" cy="12" r="1.4" fill="currentColor" stroke="none"></circle>

    <path d="M 14 0 C 20 -2, 24 -8, 26 -12"></path>
    <path d="M 14 0 C 20 2,  24 8,  26 12"></path>
    <circle cx="26" cy="-12" r="1.4" fill="currentColor" stroke="none"></circle>
    <circle cx="26" cy="12" r="1.4" fill="currentColor" stroke="none"></circle>

    
    <path d="M 0 -13 L 14 0 L 0 13 L -14 0 Z" stroke-width="1.5"></path>
    
    <circle r="3" fill="currentColor" stroke="none"></circle>
    
    <circle r="7" stroke-width="0.5" opacity="0.55"></circle>

    
    <line x1="0" y1="13" x2="0" y2="22" stroke-width="1.2"></line>
    <circle cx="0" cy="24" r="1.4" fill="currentColor" stroke="none"></circle>
  </g>
</svg>