<svg xmlns="http://www.w3.org/2000/svg" viewBox="0 0 480 100">
  
  <defs>
    <linearGradient id="goldGrad" x1="0" y1="0" x2="0" y2="1">
      <stop offset="0%" stop-color="#fce6a8"></stop>
      <stop offset="55%" stop-color="#e5c177"></stop>
      <stop offset="100%" stop-color="#b08f4d"></stop>
    </linearGradient>
    <filter id="goldGlow" x="-20%" y="-50%" width="140%" height="200%">
      <feGaussianBlur stdDeviation="3" result="b"></feGaussianBlur>
      <feMerge>
        <feMergeNode in="b"></feMergeNode>
        <feMergeNode in="SourceGraphic"></feMergeNode>
      </feMerge>
    </filter>
  </defs>

  
  <g transform="translate(42 46)" fill="none" stroke="#5fd5c1" stroke-width="1.5" stroke-linecap="round" stroke-linejoin="round">
    <circle r="26" stroke-width="0.6" opacity="0.32"></circle>
    <path d="M -15 0 Q -8 -7.5 0 -7.5 Q 8 -7.5 15 0 Q 8 7.5 0 7.5 Q -8 7.5 -15 0 Z"></path>
    <line x1="0" y1="-7.5" x2="0" y2="-19"></line>
    <line x1="-7" y1="-5.5" x2="-13" y2="-16"></line>
    <line x1="7" y1="-5.5" x2="13" y2="-16"></line>
    <circle r="3" fill="#5fd5c1" stroke="none"></circle>
    <circle r="1.1" fill="#06080c" stroke="none" opacity="0.7"></circle>
    <path d="M 0 9 Q -2.4 12 -2.4 15.5 Q -2.4 18.2 0 18.2 Q 2.4 18.2 2.4 15.5 Q 2.4 12 0 9 Z" fill="#5fd5c1" stroke="none"></path>
  </g>

  
  <text x="92" y="58" font-family="&#39;Cormorant Garamond&#39;, &#39;EB Garamond&#39;, Georgia, serif" font-weight="500" font-size="44" letter-spacing="1.8" fill="url(#goldGrad)" filter="url(#goldGlow)">filigree</text>

  <text x="94" y="78" font-family="&#39;Cormorant Garamond&#39;, &#39;EB Garamond&#39;, Georgia, serif" font-style="italic" font-weight="400" font-size="14" letter-spacing="2.8" fill="#9a7c3d" opacity="0.85">THE ATELIER LEDGER</text>
</svg>